<svg width="31" height="553" viewBox="0 0 31 553" fill="none" xmlns="http://www.w3.org/2000/svg">
    <circle cx="15.5" cy="329.5" r="14.5" stroke="white" stroke-width="2"/>
    <circle cx="15.5" cy="355.5" r="3.5" stroke="white" stroke-width="4"/>
    <circle cx="15.5" cy="369.5" r="2.5" fill="white"/>
    <path d="M17 1.5C17 0.671573 16.3284 3.62117e-08 15.5 0C14.6716 -3.62117e-08 14 0.671573 14 1.5L17 1.5ZM15.5 321.5C11.0817 321.5 7.5 325.082 7.5 329.5C7.5 333.918 11.0817 337.5 15.5 337.5C19.9183 337.5 23.5 333.918 23.5 329.5C23.5 325.082 19.9183 321.5 15.5 321.5ZM14 1.5L14 329.5L17 329.5L17 1.5L14 1.5Z" fill="white"/>
    <line x1="15.5" y1="383.5" x2="15.5" y2="552.5" stroke="white" stroke-linecap="round"/>
</svg>
