<svg width="2403" height="1330" viewBox="0 0 2403 1330" fill="none" xmlns="http://www.w3.org/2000/svg">
<g clip-path="url(#clip0_103_2)">
<circle cx="113" cy="283" r="168.5" stroke="white" stroke-width="11"/>
<path d="M281.5 631.5C281.5 724.851 206.045 800.5 113 800.5C19.9549 800.5 -55.5 724.851 -55.5 631.5C-55.5 538.149 19.9549 462.5 113 462.5C206.045 462.5 281.5 538.149 281.5 631.5Z" stroke="white" stroke-width="11"/>
<circle cx="113" cy="980" r="168.5" stroke="white" stroke-width="11"/>
<circle cx="113" cy="1328" r="168.5" stroke="white" stroke-width="11"/>
<path d="M581.5 457C581.5 550.045 505.851 625.5 412.5 625.5C319.149 625.5 243.5 550.045 243.5 457C243.5 363.955 319.149 288.5 412.5 288.5C505.851 288.5 581.5 363.955 581.5 457Z" stroke="white" stroke-width="11"/>
<circle cx="412.5" cy="805.5" r="169" stroke="white" stroke-width="11"/>
<path d="M581.5 1154C581.5 1247.05 505.851 1322.5 412.5 1322.5C319.149 1322.5 243.5 1247.05 243.5 1154C243.5 1060.95 319.149 985.5 412.5 985.5C505.851 985.5 581.5 1060.95 581.5 1154Z" stroke="white" stroke-width="11"/>
<path d="M581.5 1502C581.5 1595.05 505.851 1670.5 412.5 1670.5C319.149 1670.5 243.5 1595.05 243.5 1502C243.5 1408.95 319.149 1333.5 412.5 1333.5C505.851 1333.5 581.5 1408.95 581.5 1502Z" stroke="white" stroke-width="11"/>
<circle cx="706" cy="283" r="168.5" stroke="white" stroke-width="11"/>
<path d="M874.5 631.5C874.5 724.851 799.045 800.5 706 800.5C612.955 800.5 537.5 724.851 537.5 631.5C537.5 538.149 612.955 462.5 706 462.5C799.045 462.5 874.5 538.149 874.5 631.5Z" stroke="white" stroke-width="11"/>
<circle cx="706" cy="980" r="168.5" stroke="white" stroke-width="11"/>
<circle cx="706" cy="1328" r="168.5" stroke="white" stroke-width="11"/>
<path d="M1174.5 457C1174.5 550.045 1098.85 625.5 1005.5 625.5C912.149 625.5 836.5 550.045 836.5 457C836.5 363.955 912.149 288.5 1005.5 288.5C1098.85 288.5 1174.5 363.955 1174.5 457Z" stroke="white" stroke-width="11"/>
<circle cx="1005.5" cy="805.5" r="169" stroke="white" stroke-width="11"/>
<path d="M1174.5 1154C1174.5 1247.05 1098.85 1322.5 1005.5 1322.5C912.149 1322.5 836.5 1247.05 836.5 1154C836.5 1060.95 912.149 985.5 1005.5 985.5C1098.85 985.5 1174.5 1060.95 1174.5 1154Z" stroke="white" stroke-width="11"/>
<path d="M1174.5 1502C1174.5 1595.05 1098.85 1670.5 1005.5 1670.5C912.149 1670.5 836.5 1595.05 836.5 1502C836.5 1408.95 912.149 1333.5 1005.5 1333.5C1098.85 1333.5 1174.5 1408.95 1174.5 1502Z" stroke="white" stroke-width="11"/>
<path d="M1473.5 631.5C1473.5 724.851 1398.05 800.5 1305 800.5C1211.95 800.5 1136.5 724.851 1136.5 631.5C1136.5 538.149 1211.95 462.5 1305 462.5C1398.05 462.5 1473.5 538.149 1473.5 631.5Z" stroke="white" stroke-width="11"/>
<circle cx="1305" cy="980" r="168.5" stroke="white" stroke-width="11"/>
<circle cx="1305" cy="1328" r="168.5" stroke="white" stroke-width="11"/>
<circle cx="1599" cy="457" r="168.5" stroke="white" stroke-width="11"/>
<circle cx="1008" cy="109" r="168.5" stroke="white" stroke-width="11"/>
<circle cx="1307" cy="283" r="168.5" stroke="white" stroke-width="11"/>
<circle cx="1601" cy="109" r="168.5" stroke="white" stroke-width="11"/>
<circle cx="1890" cy="-65" r="168.5" stroke="white" stroke-width="11"/>
<circle cx="2189" cy="109" r="168.5" stroke="white" stroke-width="11"/>
<circle cx="2483" cy="-65" r="168.5" stroke="white" stroke-width="11"/>
<circle cx="113" cy="-65" r="168.5" stroke="white" stroke-width="11"/>
<path d="M581.5 109C581.5 202.045 505.851 277.5 412.5 277.5C319.149 277.5 243.5 202.045 243.5 109C243.5 15.9549 319.149 -59.5 412.5 -59.5C505.851 -59.5 581.5 15.9549 581.5 109Z" stroke="white" stroke-width="11"/>
<circle cx="706" cy="-65" r="168.5" stroke="white" stroke-width="11"/>
<path d="M1767.5 805.5C1767.5 898.851 1692.05 974.5 1599 974.5C1505.95 974.5 1430.5 898.851 1430.5 805.5C1430.5 712.149 1505.95 636.5 1599 636.5C1692.05 636.5 1767.5 712.149 1767.5 805.5Z" stroke="white" stroke-width="11"/>
<circle cx="1599" cy="1154" r="168.5" stroke="white" stroke-width="11"/>
<circle cx="1599" cy="1502" r="168.5" stroke="white" stroke-width="11"/>
<circle cx="1898" cy="283" r="168.5" stroke="white" stroke-width="11"/>
<path d="M2066.5 631.5C2066.5 724.851 1991.05 800.5 1898 800.5C1804.95 800.5 1729.5 724.851 1729.5 631.5C1729.5 538.149 1804.95 462.5 1898 462.5C1991.05 462.5 2066.5 538.149 2066.5 631.5Z" stroke="white" stroke-width="11"/>
<circle cx="1898" cy="980" r="168.5" stroke="white" stroke-width="11"/>
<circle cx="1898" cy="1328" r="168.5" stroke="white" stroke-width="11"/>
<path d="M2366.5 457C2366.5 550.045 2290.85 625.5 2197.5 625.5C2104.15 625.5 2028.5 550.045 2028.5 457C2028.5 363.955 2104.15 288.5 2197.5 288.5C2290.85 288.5 2366.5 363.955 2366.5 457Z" stroke="white" stroke-width="11"/>
<circle cx="2197.5" cy="805.5" r="169" stroke="white" stroke-width="11"/>
<path d="M2366.5 1154C2366.5 1247.05 2290.85 1322.5 2197.5 1322.5C2104.15 1322.5 2028.5 1247.05 2028.5 1154C2028.5 1060.95 2104.15 985.5 2197.5 985.5C2290.85 985.5 2366.5 1060.95 2366.5 1154Z" stroke="white" stroke-width="11"/>
<path d="M2366.5 1502C2366.5 1595.05 2290.85 1670.5 2197.5 1670.5C2104.15 1670.5 2028.5 1595.05 2028.5 1502C2028.5 1408.95 2104.15 1333.5 2197.5 1333.5C2290.85 1333.5 2366.5 1408.95 2366.5 1502Z" stroke="white" stroke-width="11"/>
<circle cx="2491" cy="283" r="168.5" stroke="white" stroke-width="11"/>
<path d="M2659.5 631.5C2659.5 724.851 2584.05 800.5 2491 800.5C2397.95 800.5 2322.5 724.851 2322.5 631.5C2322.5 538.149 2397.95 462.5 2491 462.5C2584.05 462.5 2659.5 538.149 2659.5 631.5Z" stroke="white" stroke-width="11"/>
<circle cx="2491" cy="980" r="168.5" stroke="white" stroke-width="11"/>
<circle cx="2491" cy="1328" r="168.5" stroke="white" stroke-width="11"/>
</g>
<defs>
<clipPath id="clip0_103_2">
<rect width="2403" height="1330" fill="white"/>
</clipPath>
</defs>
</svg>
